<?xml version="1.0" standalone="no"?>
<!DOCTYPE svg PUBLIC "-//W3C//DTD SVG 20010904//EN"
 "http://www.w3.org/TR/2001/REC-SVG-20010904/DTD/svg10.dtd">
<svg version="1.0" xmlns="http://www.w3.org/2000/svg"
 width="441.000000pt" height="565.000000pt" viewBox="0 0 441.000000 565.000000"
 preserveAspectRatio="xMidYMid meet">

<g transform="translate(0.000000,565.000000) scale(0.100000,-0.100000)"
fill="#000000" stroke="none">
<path d="M2370 5610 c-389 -53 -531 -90 -730 -190 -315 -158 -558 -400 -733
-730 -112 -211 -200 -505 -227 -760 -7 -58 -20 -161 -31 -230 -10 -69 -22
-158 -25 -199 -9 -94 -19 -105 -243 -285 -280 -224 -316 -264 -304 -330 15
-76 188 -181 441 -265 135 -46 630 -183 810 -225 259 -61 538 -82 682 -52 131
28 511 176 815 319 94 43 181 83 195 87 14 5 106 18 205 29 575 66 1023 231
1115 410 37 74 32 92 -45 164 -103 95 -111 116 -125 332 -18 278 -43 436 -100
632 -71 238 -172 446 -305 622 -85 112 -250 276 -350 346 -38 27 -74 55 -80
62 -18 22 -177 112 -270 152 -224 98 -484 140 -695 111z m-151 -94 c-2 -2 -31
-17 -64 -34 -147 -73 -338 -248 -472 -432 -305 -418 -530 -1117 -559 -1734 -5
-124 -20 -198 -50 -258 l-14 -27 -217 75 c-119 41 -219 76 -221 79 -3 2 7 34
22 70 21 52 29 95 36 198 42 569 325 1172 750 1598 171 172 305 271 491 365
119 59 332 131 298 100z m195 -10 c-152 -59 -261 -134 -397 -275 -375 -388
-643 -1123 -666 -1826 l-6 -189 -95 -68 c-52 -37 -98 -67 -102 -68 -4 0 0 19
8 43 10 26 19 102 25 202 36 692 282 1386 640 1812 150 178 344 314 529 369
101 31 144 30 64 0z m-415 10 c-2 -2 -58 -31 -124 -65 -462 -235 -853 -706
-1097 -1321 -61 -154 -70 -154 -38 -1 143 674 542 1157 1117 1351 105 35 155
48 142 36z m951 -49 c101 -30 194 -71 290 -127 39 -23 74 -39 79 -36 30 19
293 -213 406 -359 263 -340 409 -800 417 -1316 1 -115 -1 -129 -21 -163 -104
-168 -519 -306 -1121 -373 -199 -22 -957 -25 -1145 -5 -135 15 -353 46 -433
63 -50 10 -52 12 -38 28 13 14 16 42 16 137 1 450 127 985 330 1399 213 434
492 699 810 770 101 23 302 14 410 -18z m1211 -2049 c6 -13 41 -53 76 -90 59
-59 65 -69 59 -95 -12 -46 -106 -126 -208 -177 -342 -168 -952 -266 -1663
-266 -735 0 -1368 105 -1703 284 -68 35 -21 25 169 -39 l193 -66 127 86 127
87 78 -16 c291 -58 552 -80 974 -80 358 -1 444 4 740 40 451 55 807 169 953
305 29 27 55 48 59 49 4 0 12 -10 19 -22z m-3570 -153 c-22 -59 -28 -63 -43
-30 -11 25 -10 29 15 51 41 35 47 30 28 -21z m-70 -89 c117 -192 609 -350
1299 -416 164 -16 559 -27 810 -23 l215 4 -50 -27 c-145 -78 -654 -280 -778
-309 -82 -19 -298 -19 -428 0 -181 27 -327 62 -734 175 -381 106 -582 184
-670 261 -47 42 -59 64 -45 89 12 23 330 290 345 290 5 0 22 -20 36 -44z"/>
<path d="M3920 2859 c-30 -10 -61 -21 -68 -24 -10 -3 -3 -22 22 -68 20 -35 36
-70 36 -78 0 -8 12 -39 26 -69 14 -30 42 -116 61 -190 34 -128 36 -146 41
-336 5 -213 -4 -322 -37 -433 -11 -36 -26 -91 -34 -121 -15 -57 -59 -170 -79
-205 -7 -11 -25 -45 -40 -75 -69 -132 -118 -202 -233 -334 -88 -101 -268 -254
-350 -297 -22 -12 -49 -29 -60 -39 -11 -9 -36 -23 -55 -30 -19 -7 -46 -21 -60
-31 -36 -25 -198 -82 -305 -109 -27 -7 -72 -19 -100 -27 -68 -20 -412 -29
-537 -14 -52 6 -115 18 -139 26 -24 9 -74 23 -112 30 -37 8 -77 21 -90 29 -12
7 -47 22 -77 31 -30 10 -71 29 -90 42 -19 12 -40 23 -46 23 -10 0 -52 25 -164
99 -160 106 -387 341 -468 484 -13 23 -29 49 -36 57 -32 38 -131 266 -152 350
-8 30 -23 85 -34 121 -47 153 -51 535 -9 696 29 111 31 104 -36 125 -33 10
-67 18 -75 18 -12 0 -21 -29 -39 -117 -13 -65 -27 -143 -32 -173 -9 -71 -10
-299 0 -370 13 -90 52 -282 68 -330 50 -151 103 -281 133 -330 6 -8 22 -37 36
-65 85 -159 310 -417 470 -536 263 -198 590 -323 974 -371 262 -33 721 60 985
199 17 9 44 23 60 31 203 103 483 368 627 592 85 133 167 295 184 365 4 17 15
48 25 70 10 22 34 120 53 219 32 160 36 195 36 340 0 139 -4 184 -31 326 -17
91 -44 200 -60 242 -16 42 -29 83 -29 90 0 7 -15 43 -34 80 -18 36 -36 76 -39
87 -6 25 -16 25 -87 0z"/>
<path d="M2506 2455 c-44 -19 -85 -40 -92 -47 -7 -7 -22 -44 -33 -83 -10 -38
-28 -95 -39 -125 -22 -60 -50 -144 -87 -260 -33 -104 -64 -194 -91 -266 -12
-34 -30 -90 -39 -125 -9 -35 -24 -77 -32 -93 -18 -34 -44 -137 -45 -179 -1
-15 7 -36 17 -47 22 -24 77 -27 100 -4 25 26 54 89 66 146 7 29 22 76 34 104
13 28 28 75 34 103 6 28 20 69 30 90 11 21 27 65 35 97 16 65 56 186 92 279
13 33 29 83 35 110 7 28 20 67 31 87 10 21 23 61 29 89 6 28 22 76 35 105 16
37 20 54 11 54 -6 0 -48 -16 -91 -35z"/>
<path d="M2970 2450 c-21 -21 -27 -78 -11 -109 8 -14 95 -97 264 -248 36 -33
36 -76 -1 -111 -15 -15 -82 -77 -149 -139 -81 -76 -122 -121 -126 -139 -11
-61 36 -114 85 -95 13 5 57 40 99 77 42 38 126 114 187 169 64 58 121 118 134
142 22 42 22 43 5 75 -10 18 -61 73 -115 122 -53 49 -139 128 -190 175 -119
109 -143 120 -182 81z"/>
<path d="M1417 2208 c-107 -94 -137 -132 -137 -172 0 -41 26 -71 182 -213 78
-70 158 -143 177 -161 55 -50 85 -64 116 -52 33 13 49 49 41 94 -6 29 -31 57
-151 167 -193 176 -192 163 -17 316 91 80 93 74 -28 88 -30 4 -63 9 -72 11
-11 3 -50 -24 -111 -78z"/>
</g>
</svg>
